<svg xmlns="http://www.w3.org/2000/svg" width="375" height="297" viewBox="0 0 375 297">
  <path id="合体_1" data-name="合体 1" d="M-184.178,261.806h-.005C-184.426,281.284-201.162,297-221.772,297s-37.346-15.716-37.588-35.193h-.005C-259.6,281.284-276.138,297-296.5,297s-36.9-15.716-37.135-35.193h-.005C-333.882,281.284-350.618,297-371.228,297s-37.347-15.716-37.589-35.193h-.005C-409.064,281.284-425.8,297-446.41,297S-483.755,281.284-484,261.806h0V0h375V261.806h0C-109.245,281.284-125.98,297-146.591,297S-183.936,281.284-184.178,261.806Z" transform="translate(484)" fill="#ccc9e7"/>
</svg>
