<svg xmlns="http://www.w3.org/2000/svg" width="34" height="34" viewBox="0 0 34 34">
  <g id="グループ_10" data-name="グループ 10" transform="translate(-118 -705)">
    <rect id="長方形_17" data-name="長方形 17" width="34" height="34" transform="translate(118 705)" fill="none"/>
    <path id="Icon_awesome-hand-point-up" data-name="Icon awesome-hand-point-up" d="M7.5,0A2.493,2.493,0,0,1,9.924,2.477V8a2.72,2.72,0,0,1,3.923.348,2.533,2.533,0,0,1,3.446.91c2.717-.5,3.94,1.213,3.94,4.014,0,.152-.011.734-.011.885C21.231,17.581,19.5,18.407,19.1,21a1.325,1.325,0,0,1-1.311,1.121H8.308a2.654,2.654,0,0,1-2.424-1.574c-.718-1.6-2.711-5.276-4.275-5.946A2.357,2.357,0,0,1,0,12.386,2.656,2.656,0,0,1,3.7,9.946a7.515,7.515,0,0,1,1.378.783V2.477A2.533,2.533,0,0,1,7.5,0ZM7.52,23H18.136a1.327,1.327,0,0,1,1.327,1.327v2.654a1.327,1.327,0,0,1-1.327,1.327H7.52a1.327,1.327,0,0,1-1.327-1.327V24.329A1.327,1.327,0,0,1,7.52,23Zm9.289,1.548a1.106,1.106,0,1,0,1.106,1.106A1.106,1.106,0,0,0,16.809,24.55Z" transform="translate(124.634 707.845)" fill="#fff"/>
  </g>
</svg>
