<svg id="Icon_feather-shopping-cart" data-name="Icon feather-shopping-cart" xmlns="http://www.w3.org/2000/svg" width="29.504" height="27.848" viewBox="0 0 29.504 27.848">
  <path id="パス_4" data-name="パス 4" d="M14.485,31.242A1.242,1.242,0,1,1,13.242,30,1.242,1.242,0,0,1,14.485,31.242Z" transform="translate(-2.093 -6.137)" fill="none" stroke="#000" stroke-linecap="round" stroke-linejoin="round" stroke-width="3"/>
  <path id="パス_5" data-name="パス 5" d="M30.985,31.242A1.242,1.242,0,1,1,29.742,30,1.242,1.242,0,0,1,30.985,31.242Z" transform="translate(-5.465 -6.137)" fill="none" stroke="#000" stroke-linecap="round" stroke-linejoin="round" stroke-width="3"/>
  <path id="パス_6" data-name="パス 6" d="M1.5,1.5H6.319L9.548,17.027a2.39,2.39,0,0,0,2.409,1.867h11.71a2.39,2.39,0,0,0,2.409-1.867L28,7.3H7.524" fill="none" stroke="#000" stroke-linecap="round" stroke-linejoin="round" stroke-width="3"/>
</svg>
