<svg width="375" height="297" viewBox="0 0 375 297" fill="none" xmlns="http://www.w3.org/2000/svg">
<path d="M337.4 296.5C332.49 296.511 327.623 295.585 323.06 293.77C318.7 292.045 314.704 289.514 311.28 286.31C307.922 283.2 305.204 279.463 303.28 275.31C301.347 271.066 300.325 266.464 300.28 261.8V261.31H299.28V261.81C299.234 266.47 298.212 271.069 296.28 275.31C294.356 279.463 291.638 283.2 288.28 286.31C284.866 289.499 280.884 292.019 276.54 293.74C267.32 297.38 257.06 297.38 247.84 293.74C243.507 292.016 239.535 289.496 236.13 286.31C232.774 283.198 230.057 279.461 228.13 275.31C226.186 271.069 225.164 266.465 225.13 261.8V261.31H224.13V261.81C224.077 266.473 223.055 271.073 221.13 275.32C219.253 279.459 216.587 283.192 213.28 286.31C209.924 289.501 205.99 292.022 201.69 293.74C192.59 297.38 182.44 297.38 173.34 293.74C169.034 292.022 165.094 289.501 161.73 286.31C158.411 283.194 155.737 279.457 153.86 275.31C151.935 271.063 150.914 266.462 150.86 261.8V261.31H149.86V261.81C149.82 266.474 148.798 271.077 146.86 275.32C144.933 279.471 142.216 283.208 138.86 286.32C135.446 289.509 131.464 292.029 127.12 293.75C117.9 297.39 107.64 297.39 98.42 293.75C94.0756 292.026 90.0934 289.503 86.68 286.31C83.322 283.2 80.6044 279.463 78.68 275.31C76.7469 271.066 75.725 266.464 75.68 261.8V261.31H74.68V261.81C74.6461 266.475 73.6236 271.079 71.68 275.32C69.753 279.471 67.0357 283.208 63.68 286.32C60.2658 289.509 56.2836 292.029 51.94 293.75C47.3736 295.564 42.5034 296.49 37.59 296.48C32.6912 296.493 27.8347 295.574 23.28 293.77C18.9199 292.045 14.9236 289.514 11.5 286.31C8.142 283.2 5.42438 279.463 3.5 275.31C1.56692 271.066 0.544951 266.464 0.5 261.8V0.5H374.5V261.8C374.455 266.464 373.433 271.066 371.5 275.31C369.573 279.461 366.856 283.198 363.5 286.31C360.081 289.497 356.095 292.017 351.75 293.74C347.186 295.566 342.315 296.503 337.4 296.5V296.5Z" fill="white"/>
<path d="M337.4 296C342.251 296.01 347.06 295.097 351.57 293.31C355.857 291.613 359.786 289.123 363.15 285.97C366.454 282.894 369.124 279.201 371.01 275.1C372.933 270.923 373.956 266.388 374.01 261.79V1H1.01V261.79C1.06953 266.387 2.09148 270.922 4.01 275.1C5.89582 279.201 8.566 282.894 11.87 285.97C15.2253 289.12 19.1435 291.61 23.42 293.31C27.9303 295.096 32.7389 296.009 37.59 296C42.4378 296.009 47.2432 295.096 51.75 293.31C56.0371 291.613 59.9658 289.123 63.33 285.97C66.6371 282.897 69.3078 279.203 71.19 275.1C73.1133 270.923 74.1355 266.388 74.19 261.79V260.79H76.19V261.79C76.2448 266.388 77.267 270.923 79.19 275.1C81.0686 279.203 83.7359 282.896 87.04 285.97C90.3983 289.121 94.32 291.611 98.6 293.31C107.703 296.897 117.827 296.897 126.93 293.31C131.219 291.611 135.151 289.121 138.52 285.97C141.821 282.894 144.488 279.201 146.37 275.1C148.288 270.921 149.31 266.387 149.37 261.79V260.79H151.37V261.79C151.439 266.39 152.461 270.925 154.37 275.11C156.225 279.203 158.861 282.896 162.13 285.98C165.428 289.119 169.289 291.606 173.51 293.31C182.497 296.904 192.523 296.904 201.51 293.31C205.753 291.612 209.635 289.125 212.95 285.98C216.219 282.896 218.855 279.203 220.71 275.11C222.602 270.921 223.606 266.386 223.66 261.79V260.79H225.66V261.79C225.714 266.388 226.737 270.923 228.66 275.1C230.542 279.203 233.213 282.897 236.52 285.97C239.872 289.119 243.787 291.609 248.06 293.31C257.163 296.897 267.287 296.897 276.39 293.31C280.677 291.613 284.606 289.123 287.97 285.97C291.274 282.894 293.944 279.201 295.83 275.1C297.749 270.922 298.77 266.387 298.83 261.79V260.79H300.83V261.79C300.884 266.388 301.907 270.923 303.83 275.1C305.716 279.201 308.386 282.894 311.69 285.97C315.057 289.124 318.989 291.614 323.28 293.31C327.787 295.096 332.592 296.009 337.44 296H337.4ZM337.44 297C316.84 297 300.1 281.28 299.86 261.8C299.62 281.28 282.86 297 262.27 297C241.68 297 224.88 281.31 224.64 261.8C224.4 281.28 207.87 297 187.51 297C167.15 297 150.61 281.28 150.37 261.8C150.12 281.28 133.37 297 112.78 297C92.19 297 75.42 281.31 75.18 261.8C74.94 281.28 58.18 297 37.6 297C17.02 297 0.28 281.31 0 261.8V0H375V261.8C374.75 281.31 358.02 297 337.4 297H337.44Z" fill="#707070"/>
</svg>
