<svg xmlns="http://www.w3.org/2000/svg" width="13.466" height="12.728" viewBox="0 0 13.466 12.728">
  <g id="パス_9" data-name="パス 9" transform="translate(-1.267 -1.317)" fill="none">
    <path d="M7.43,1.729a.6.6,0,0,1,1.14,0L9.753,5.317a.6.6,0,0,0,.57.412h3.809a.6.6,0,0,1,.349,1.088l-3.067,2.2a.6.6,0,0,0-.22.676l1.175,3.564a.6.6,0,0,1-.919.676l-3.1-2.22a.6.6,0,0,0-.7,0l-3.1,2.22a.6.6,0,0,1-.919-.676L4.806,9.689a.6.6,0,0,0-.22-.676l-3.067-2.2a.6.6,0,0,1,.349-1.088H5.677a.6.6,0,0,0,.57-.412Z" stroke="none"/>
    <path d="M 8 1.816629409790039 C 7.927669525146484 1.816629409790039 7.911219596862793 1.86652946472168 7.905030250549316 1.885329246520996 L 6.722180366516113 5.473849296569824 C 6.573200225830078 5.925819396972656 6.153360366821289 6.229489326477051 5.677470207214355 6.229489326477051 L 1.868240356445312 6.229489326477051 C 1.848299980163574 6.229489326477051 1.795319557189941 6.229489326477051 1.773030281066895 6.298918724060059 C 1.750729560852051 6.368329048156738 1.793800354003906 6.399179458618164 1.810009956359863 6.410789489746094 L 4.876850128173828 8.607219696044922 C 5.27003002166748 8.888799667358398 5.432470321655273 9.386579513549805 5.28108024597168 9.845878601074219 L 4.106169700622559 13.41036891937256 C 4.094499588012695 13.44577884674072 4.097240447998047 13.47058868408203 4.115630149841309 13.49601936340332 C 4.13621997833252 13.524489402771 4.172160148620605 13.54437923431396 4.203029632568359 13.54437923431396 C 4.214380264282227 13.54437923431396 4.232560157775879 13.54215908050537 4.259360313415527 13.52296924591064 L 7.35951042175293 11.30268859863281 C 7.54740047454834 11.16811943054199 7.768879890441895 11.09698867797852 8 11.09698867797852 C 8.231100082397461 11.09698867797852 8.452569961547852 11.16811943054199 8.64048957824707 11.30268859863281 L 11.74065017700195 13.52297878265381 C 11.76743984222412 13.54215908050537 11.78561973571777 13.54437923431396 11.79697036743164 13.54437923431396 C 11.82781982421875 13.54437923431396 11.86375045776367 13.52447891235352 11.88435935974121 13.49599933624268 C 11.90275955200195 13.47055912017822 11.90550994873047 13.44574928283691 11.89383983612061 13.41036891937256 L 10.71891975402832 9.845878601074219 C 10.56752967834473 9.386589050292969 10.72996997833252 8.888809204101562 11.12314033508301 8.607229232788086 L 14.18999004364014 6.410789489746094 C 14.20619964599609 6.399179458618164 14.24926948547363 6.368329048156738 14.22696971893311 6.298918724060059 C 14.20467948913574 6.229489326477051 14.15170001983643 6.229489326477051 14.13175964355469 6.229489326477051 L 10.32252979278564 6.229489326477051 C 9.846630096435547 6.229489326477051 9.426790237426758 5.925819396972656 9.277810096740723 5.473849296569824 L 8.094970703125 1.885318756103516 C 8.088779449462891 1.86652946472168 8.072330474853516 1.816629409790039 8 1.816629409790039 M 8 1.316629409790039 C 8.239635467529297 1.316629409790039 8.479269981384277 1.454019546508789 8.569839477539062 1.728798866271973 L 9.752679824829102 5.317318916320801 C 9.833759307861328 5.563299179077148 10.06352996826172 5.729489326477051 10.32252979278564 5.729489326477051 L 14.13175964355469 5.729489326477051 C 14.71508026123047 5.729489326477051 14.95536041259766 6.477648735046387 14.48112010955811 6.817289352416992 L 11.41427040100098 9.013729095458984 C 11.20096015930176 9.166499137878418 11.11165046691895 9.440158843994141 11.19379043579102 9.689359664916992 L 12.36870956420898 13.25383949279785 C 12.5504093170166 13.80510902404785 11.92141056060791 14.26743984222412 11.44951057434082 13.92946910858154 L 8.349359512329102 11.70918941497803 C 8.140470504760742 11.55958938598633 7.859530448913574 11.55958938598633 7.650639533996582 11.70918941497803 L 4.550490379333496 13.92946910858154 C 4.07858943939209 14.26744079589844 3.449580192565918 13.80510807037354 3.63129997253418 13.25383949279785 L 4.806209564208984 9.689359664916992 C 4.888349533081055 9.440158843994141 4.799050331115723 9.166499137878418 4.585729598999023 9.013729095458984 L 1.518879890441895 6.817289352416992 C 1.044639587402344 6.477648735046387 1.284919738769531 5.729489326477051 1.868240356445312 5.729489326477051 L 5.677470207214355 5.729489326477051 C 5.936470031738281 5.729489326477051 6.166230201721191 5.563299179077148 6.247309684753418 5.317318916320801 L 7.430159568786621 1.728798866271973 C 7.520730018615723 1.454019546508789 7.760364532470703 1.316629409790039 8 1.316629409790039 Z" stroke="none" fill="#707070"/>
  </g>
</svg>
