<svg xmlns="http://www.w3.org/2000/svg" width="31" height="20" viewBox="0 0 31 20">
  <path id="Icon_awesome-ticket-alt" data-name="Icon awesome-ticket-alt" d="M6.889,9.5H24.111v10H6.889Zm21.528,5A2.543,2.543,0,0,0,31,17v5a2.543,2.543,0,0,1-2.583,2.5H2.583A2.543,2.543,0,0,1,0,22V17a2.5,2.5,0,1,0,0-5V7A2.543,2.543,0,0,1,2.583,4.5H28.417A2.543,2.543,0,0,1,31,7v5A2.543,2.543,0,0,0,28.417,14.5ZM25.833,9.083a1.271,1.271,0,0,0-1.292-1.25H6.458a1.271,1.271,0,0,0-1.292,1.25V19.917a1.271,1.271,0,0,0,1.292,1.25H24.542a1.271,1.271,0,0,0,1.292-1.25Z" transform="translate(0 -4.5)"/>
</svg>
