<svg xmlns="http://www.w3.org/2000/svg" width="37" height="30" viewBox="0 0 37 30">
  <path id="Icon_awesome-twitter" data-name="Icon awesome-twitter" d="M33.2,10.857c.023.328.023.656.023.984,0,10.008-7.63,21.539-21.576,21.539A21.456,21.456,0,0,1,0,29.982a15.714,15.714,0,0,0,1.831.094,15.2,15.2,0,0,0,9.414-3.234,7.6,7.6,0,0,1-7.09-5.25,9.579,9.579,0,0,0,1.432.117,8.033,8.033,0,0,0,2-.258A7.575,7.575,0,0,1,1.5,14.021v-.094a7.647,7.647,0,0,0,3.428.961A7.573,7.573,0,0,1,2.582,4.764a21.567,21.567,0,0,0,15.636,7.922,8.532,8.532,0,0,1-.188-1.734,7.593,7.593,0,0,1,13.124-5.18,14.945,14.945,0,0,0,4.813-1.828,7.552,7.552,0,0,1-3.334,4.172A15.222,15.222,0,0,0,37,6.943a16.286,16.286,0,0,1-3.8,3.914Z" transform="translate(0 -3.381)"/>
</svg>
