<svg xmlns="http://www.w3.org/2000/svg" width="30" height="20" viewBox="0 0 30 20">
  <path id="Icon_awesome-wallet" data-name="Icon awesome-wallet" d="M27.023,6.536H4.688a.849.849,0,0,1-.937-.714.849.849,0,0,1,.938-.714h22.5a.849.849,0,0,0,.938-.714c0-1.183-1.259-2.143-2.812-2.143H3.75C1.679,2.25,0,3.529,0,5.107V19.393c0,1.578,1.679,2.857,3.75,2.857H27.023c1.642,0,2.977-.961,2.977-2.143V8.679C30,7.5,28.665,6.536,27.023,6.536Zm-2.648,9.286A1.7,1.7,0,0,1,22.5,14.393a1.7,1.7,0,0,1,1.875-1.429,1.7,1.7,0,0,1,1.875,1.429A1.7,1.7,0,0,1,24.375,15.821Z" transform="translate(0 -2.25)"/>
</svg>
